<svg width="24" height="24" viewBox="0 0 24 24" xmlns="http://www.w3.org/2000/svg">
<path fill-rule="evenodd" clip-rule="evenodd" d="M14 4C11.2386 4 9 6.23858 9 9C9.00206 9.61995 9.12079 10.234 9.35 10.81L5.44 14.73C5.15862 15.011 5.00035 15.3923 5 15.79V18C5 18.5523 5.44772 19 6 19H8.5C8.77614 19 9 18.7761 9 18.5V17H10.5C10.7761 17 11 16.7761 11 16.5V15H12L13.09 13.9C14.9675 14.2799 16.8971 13.5538 18.0583 12.0303C19.2195 10.5068 19.4082 8.45376 18.5442 6.7441C17.6802 5.03444 15.9153 3.9687 14 4ZM14 13C13.5775 12.9945 13.1586 12.9202 12.76 12.78L11.54 14H10.54C10.2639 14 10.04 14.2239 10.04 14.5V16H8.5C8.22386 16 8 16.2239 8 16.5V18H6V15.79C5.99838 15.6574 6.05286 15.5303 6.15 15.44L9.56 12L10.56 11C10.1955 10.3964 10.002 9.7051 10 9C10 6.79086 11.7909 5 14 5C16.2091 5 18 6.79086 18 9C18 11.2091 16.2091 13 14 13ZM14.5 7C13.6716 7 13 7.67157 13 8.5C13 9.32843 13.6716 10 14.5 10C15.3284 10 16 9.32843 16 8.5C16 7.67157 15.3284 7 14.5 7ZM14.5 9C14.2239 9 14 8.77614 14 8.5C14 8.22386 14.2239 8 14.5 8C14.7761 8 15 8.22386 15 8.5C15 8.77614 14.7761 9 14.5 9Z" fill="#2a81dd"/>
</svg>
