<svg width="24" height="24" viewBox="0 0 24 24" xmlns="http://www.w3.org/2000/svg">
<path fill-rule="evenodd" clip-rule="evenodd" d="M12 21C9.955 21 8.073 20.306 6.56 19.152L6.583 19.157C7.045 16.758 9.323 15.016 12 15.016C14.673 15.016 16.951 16.755 17.416 19.151L17.451 19.145C15.937 20.303 14.05 21 12 21ZM12 6.166C13.287 6.166 14.333 7.213 14.333 8.5C14.333 9.924 13.126 11.944 12 11.944C10.874 11.944 9.667 9.924 9.667 8.5C9.667 7.213 10.713 6.166 12 6.166ZM19.325 18.791C19.532 18.569 19.728 18.338 19.913 18.098C19.95 18.051 19.985 18.002 20.021 17.954C20.186 17.732 20.341 17.505 20.488 17.27C20.53 17.201 20.572 17.133 20.613 17.062C20.743 16.843 20.863 16.617 20.977 16.386C21.02 16.299 21.063 16.212 21.103 16.124C21.203 15.904 21.292 15.679 21.375 15.451C21.414 15.349 21.454 15.247 21.489 15.143C21.563 14.919 21.624 14.691 21.682 14.461C21.711 14.349 21.744 14.238 21.769 14.125C21.821 13.884 21.857 13.639 21.892 13.392C21.907 13.286 21.929 13.183 21.94 13.076C21.978 12.723 22 12.364 22 12C22 6.477 17.523 2 12 2C6.477 2 2 6.477 2 12C2 12.364 2.022 12.723 2.06 13.076C2.071 13.183 2.093 13.286 2.108 13.392C2.143 13.639 2.179 13.884 2.231 14.125C2.256 14.238 2.289 14.349 2.318 14.461C2.376 14.691 2.437 14.919 2.511 15.143C2.546 15.247 2.586 15.349 2.625 15.451C2.708 15.679 2.797 15.904 2.897 16.124C2.937 16.212 2.98 16.299 3.023 16.386C3.137 16.617 3.257 16.843 3.387 17.062C3.428 17.133 3.47 17.201 3.512 17.27C3.659 17.505 3.814 17.732 3.979 17.954C4.015 18.002 4.05 18.051 4.087 18.098C4.272 18.338 4.468 18.569 4.675 18.791C4.698 18.816 4.72 18.843 4.744 18.867C6.566 20.793 9.14 22 12 22C14.86 22 17.434 20.793 19.256 18.867C19.28 18.843 19.302 18.816 19.325 18.791Z" fill="#2a81dd"/>
</svg>
